<?xml version="1.0" encoding="utf-8"?>
<!-- Generator: Adobe Illustrator 28.2.0, SVG Export Plug-In . SVG Version: 6.00 Build 0)  -->
<svg version="1.1" id="Layer_1" xmlns="http://www.w3.org/2000/svg" xmlns:xlink="http://www.w3.org/1999/xlink" x="0px" y="0px"
	 viewBox="0 0 65 66" style="enable-background:new 0 0 65 66;" xml:space="preserve">
<style type="text/css">
	.st0{fill:#DCB349;}
	.st1{clip-path:url(#SVGID_00000139994487785431762870000007108575378167771287_);}
	.st2{fill:#FFFFFF;}
</style>
<circle class="st0" cx="32.5" cy="32.7" r="32.5"/>
<g>
	<defs>
		<rect id="SVGID_1_" x="18" y="17.7" width="30" height="30"/>
	</defs>
	<clipPath id="SVGID_00000129177294348349040900000008058084032123519642_">
		<use xlink:href="#SVGID_1_"  style="overflow:visible;"/>
	</clipPath>
	<g style="clip-path:url(#SVGID_00000129177294348349040900000008058084032123519642_);">
		<path class="st2" d="M35.8,44.9L33,47.7l-2.8-2.8c-5.5-1.3-9.7-6.2-9.7-12.2c0-6.9,5.6-12.5,12.5-12.5s12.5,5.6,12.5,12.5
			C45.5,38.6,41.4,43.6,35.8,44.9z M25.5,37c1.8,2.7,4.6,4.5,7.7,4.5c3.1,0,5.8-1.7,7.7-4.5c-2.1-1.9-4.8-3-7.7-3
			C30.4,33.9,27.6,35,25.5,37z M33,31.5c1,0,1.9-0.4,2.7-1.1c0.7-0.7,1.1-1.7,1.1-2.7c0-1-0.4-1.9-1.1-2.7C34.9,24.3,34,24,33,24
			s-1.9,0.4-2.7,1.1c-0.7,0.7-1.1,1.7-1.1,2.7c0,1,0.4,1.9,1.1,2.7C31.1,31.1,32,31.5,33,31.5z"/>
	</g>
</g>
</svg>
