<?xml version="1.0" encoding="utf-8"?>
<!-- Generator: Adobe Illustrator 28.2.0, SVG Export Plug-In . SVG Version: 6.00 Build 0)  -->
<svg version="1.1" id="Layer_1" xmlns="http://www.w3.org/2000/svg" xmlns:xlink="http://www.w3.org/1999/xlink" x="0px" y="0px"
	 viewBox="0 0 356.5 41" style="enable-background:new 0 0 356.5 41;" xml:space="preserve">
<style type="text/css">
	.st0{fill:#DCB349;}
	.st1{fill:#484E77;}
</style>
<g>
	<g>
		<g>
			<path class="st0" d="M57.3,21H61v7c-1.9,1.4-4.5,2.2-7,2.2c-5.4,0-9.4-3.7-9.4-8.9c0-5.2,4-8.9,9.5-8.9c3,0,5.5,1,7.2,3l-2.6,2.4
				c-1.3-1.3-2.7-1.9-4.5-1.9c-3.3,0-5.6,2.2-5.6,5.5c0,3.2,2.3,5.5,5.6,5.5c1.1,0,2.1-0.2,3.1-0.7V21z"/>
			<path class="st0" d="M64.7,12.6h4v14h8.6v3.3H64.7V12.6z"/>
			<path class="st0" d="M91.1,26.2h-8l-1.5,3.7h-4.1l7.7-17.2h3.9l7.7,17.2h-4.2L91.1,26.2z M89.8,23.1l-2.7-6.6l-2.7,6.6H89.8z"/>
			<path class="st0" d="M114.3,29.8l0-10.3l-5.1,8.5h-1.8l-5-8.3v10.1h-3.7V12.6h3.3l6.5,10.7l6.4-10.7h3.3l0,17.2H114.3z"/>
			<path class="st0" d="M121,21.2c0-5.1,4-8.9,9.4-8.9c5.4,0,9.4,3.8,9.4,8.9c0,5.1-4,8.9-9.4,8.9C125,30.1,121,26.4,121,21.2z
				 M135.8,21.2c0-3.3-2.3-5.5-5.4-5.5c-3.1,0-5.4,2.2-5.4,5.5c0,3.3,2.3,5.5,5.4,5.5C133.5,26.7,135.8,24.5,135.8,21.2z"/>
			<path class="st0" d="M142.7,22.3v-9.7h4v9.5c0,3.3,1.4,4.6,3.8,4.6c2.4,0,3.8-1.4,3.8-4.6v-9.5h3.9v9.7c0,5.1-2.9,7.9-7.8,7.9
				C145.6,30.1,142.7,27.3,142.7,22.3z"/>
			<path class="st0" d="M173.3,29.8l-3.3-4.8h-0.2h-3.5v4.8h-4V12.6h7.5c4.6,0,7.5,2.4,7.5,6.3c0,2.6-1.3,4.5-3.5,5.4l3.9,5.5H173.3
				z M169.5,15.9h-3.3v6h3.3c2.4,0,3.7-1.1,3.7-3C173.2,17,172,15.9,169.5,15.9z"/>
			<path class="st1" d="M184.9,27.6l2.2-2.7c0.9,1.3,2,1.9,3.2,1.9c1.6,0,2.4-1,2.4-2.9v-8.2h-6.1v-3.2h10v11.2
				c0,4.3-2.1,6.4-6.2,6.4C188.2,30.1,186.2,29.3,184.9,27.6z"/>
			<path class="st1" d="M214,26.6v3.2h-13.3V12.6h13v3.2h-9.1v3.7h8v3.1h-8v4H214z"/>
			<path class="st1" d="M243,12.6l-5.6,17.2h-4.3l-3.8-11.7l-3.9,11.7h-4.3l-5.7-17.2h4.1l3.9,12.1l4.1-12.1h3.7l3.9,12.2l4-12.2
				H243z"/>
			<path class="st1" d="M258.6,26.6v3.2h-13.3V12.6h13v3.2h-9.1v3.7h8v3.1h-8v4H258.6z"/>
			<path class="st1" d="M261.7,12.6h4v14h8.6v3.3h-12.6V12.6z"/>
			<path class="st1" d="M276.6,12.6h4v14h8.6v3.3h-12.6V12.6z"/>
			<path class="st1" d="M304.8,26.6v3.2h-13.3V12.6h13v3.2h-9.1v3.7h8v3.1h-8v4H304.8z"/>
			<path class="st1" d="M319,29.8l-3.3-4.8h-0.2H312v4.8h-4V12.6h7.5c4.6,0,7.5,2.4,7.5,6.3c0,2.6-1.3,4.5-3.5,5.4l3.9,5.5H319z
				 M315.3,15.9H312v6h3.2c2.4,0,3.7-1.1,3.7-3C318.9,17,317.7,15.9,315.3,15.9z"/>
			<path class="st1" d="M334.1,23.7v6.1h-4v-6.2l-6.7-11.1h4.2l4.6,7.7l4.6-7.7h3.9L334.1,23.7z"/>
		</g>
	</g>
	<g>
		<path class="st0" d="M26.3,1.6h-9.6l-2.8,3.9l7.7,7.4L29,5.5L26.3,1.6z M21.5,3.5l0.9,1.2h-1.7L21.5,3.5z M22.7,6.1l-1.2,3.6
			l-1.3-3.6H22.7z M23.7,4.2L22.8,3h1.7L23.7,4.2z M19.2,4.2L18.4,3h1.7L19.2,4.2z M17.9,4.7h-1.7L17,3.5L17.9,4.7z M18.8,6.1
			l1.2,3.2l-3.4-3.2H18.8z M24.2,6.1h2.2l-3.3,3.3L24.2,6.1z M25,4.7l0.9-1.2l0.9,1.2H25z"/>
		<path class="st0" d="M8.6,18.2C8.6,18.2,8.6,18.2,8.6,18.2c0.1,0.6,0.3,1.2,0.6,1.9C9,19.5,8.7,18.8,8.6,18.2z"/>
		<path class="st0" d="M36.2,24.8c0-8-6.5-14.6-14.6-14.6c-4.1,0-7.7,1.7-10.4,4.4c0.1,1,0.5,2,1.1,2.9c2.2-2.7,5.5-4.5,9.3-4.5
			c6.5,0,11.8,5.3,11.8,11.8c0,0.4,0,0.7-0.1,1.1c-0.2,2.1-1.6,2.7-3,1.7c1,1.5,1.6,3.2,1.7,4.9c0.1,0.9,0,1.9-0.2,2.7
			C34.5,32.5,36.2,28.9,36.2,24.8z"/>
		<path class="st1" d="M26.1,26.2c-3.6-2.1-8.1-3.9-12-6.9c-0.7-0.6-1.3-1.2-1.8-1.9c-0.6-0.9-1-1.9-1.1-2.9
			c-0.2-1.8,0.3-3.5,1.5-4.4c-2.9,1.1-3.6,6.6-1,10c3.3,4.3,9.7,7,12.7,8.7c4.4,2.6,2.5,7.7-2.7,7.7c-6.5,0-11.8-5.3-11.8-11.8
			c0-1,0.1-2,0.4-3c-0.3-0.6-0.6-1.1-0.9-1.7c0,0,0-0.1,0-0.1c-0.3-0.7-0.5-1.3-0.6-1.9c-0.4-1.7-0.3-2.9-0.3-2.9s-0.8,2.1-0.6,5
			C7.3,21.8,7,23.3,7,24.8c0,8,6.5,14.6,14.6,14.6C30.2,39.4,32.5,29.9,26.1,26.2z"/>
	</g>
</g>
</svg>
