<?xml version="1.0" encoding="utf-8"?>
<!-- Generator: Adobe Illustrator 28.2.0, SVG Export Plug-In . SVG Version: 6.00 Build 0)  -->
<svg version="1.1" id="Layer_1" xmlns="http://www.w3.org/2000/svg" xmlns:xlink="http://www.w3.org/1999/xlink" x="0px" y="0px"
	 viewBox="0 0 500 500" style="enable-background:new 0 0 500 500;" xml:space="preserve">
<style type="text/css">
	.st0{fill:#DCB349;}
	.st1{fill:#484E77;}
</style>
<g>
	<g>
		<path class="st0" d="M308.8,13.7h-120l-35,48.8L250,155l92.5-92.5L308.8,13.7z M248.7,37.5l11.3,15h-21.3L248.7,37.5z M263.8,70
			l-15,45l-16.3-45H263.8z M276.3,46.2l-11.3-15h21.3L276.3,46.2z M220,46.2l-10-15h21.3L220,46.2z M203.7,52.5h-21.3l10-15
			L203.7,52.5z M215,70l15,40l-42.5-40C187.5,70,215,70,215,70z M282.5,70H310l-41.3,41.3L282.5,70z M292.5,52.5l11.3-15l11.3,15
			H292.5z"/>
		<path class="st0" d="M87.5,221.2L87.5,221.2c1.3,7.5,3.8,15,7.5,23.8C92.5,237.5,88.7,228.7,87.5,221.2z"/>
		<path class="st0" d="M432.5,303.8c0-100-81.3-182.5-182.5-182.5c-51.3,0-96.3,21.3-130,55c1.3,12.5,6.3,25,13.8,36.3
			c27.5-33.8,68.8-56.3,116.3-56.3c81.3,0,147.5,66.3,147.5,147.5c0,5,0,8.8-1.3,13.8c-2.5,26.3-20,33.8-37.5,21.3
			c12.5,18.8,20,40,21.3,61.3c1.3,11.3,0,23.8-2.5,33.8C411.3,400,432.5,355,432.5,303.8z"/>
		<path class="st1" d="M306.3,321.3c-45-26.3-101.3-48.8-150-86.3c-8.8-7.5-16.3-15-22.5-23.8c-7.5-11.3-12.5-23.8-13.8-36.3
			c-2.5-22.5,3.8-43.8,18.8-55c-36.3,13.8-45,82.5-12.5,125c41.3,53.8,121.3,87.5,158.8,108.8c55,32.5,31.3,96.3-33.8,96.3
			c-81.3,0-147.5-66.3-147.5-147.5c0-12.5,1.3-25,5-37.5c-3.8-7.5-7.5-13.8-11.3-21.3v-1.3c-3.8-8.8-6.3-16.3-7.5-23.8
			c-5-21.3-3.8-36.3-3.8-36.3s-10,26.3-7.5,62.5c-7.5,21.3-11.3,40-11.3,58.8c0,100,81.3,182.5,182.5,182.5
			C357.5,486.3,386.3,367.5,306.3,321.3z"/>
	</g>
</g>
</svg>
