<?xml version="1.0" encoding="utf-8"?>
<!-- Generator: Adobe Illustrator 28.2.0, SVG Export Plug-In . SVG Version: 6.00 Build 0)  -->
<svg version="1.1" id="Layer_1" xmlns="http://www.w3.org/2000/svg" xmlns:xlink="http://www.w3.org/1999/xlink" x="0px" y="0px"
	 viewBox="0 0 65 66" style="enable-background:new 0 0 65 66;" xml:space="preserve">
<style type="text/css">
	.st0{fill:#DCB349;}
	.st1{clip-path:url(#SVGID_00000129203946732922378940000009705256115840541321_);}
	.st2{fill:#FFFFFF;}
</style>
<circle class="st0" cx="32.5" cy="32.7" r="32.5"/>
<g>
	<defs>
		<rect id="SVGID_1_" x="20" y="20.7" width="26" height="26"/>
	</defs>
	<clipPath id="SVGID_00000137089839121775958010000000668453046792866491_">
		<use xlink:href="#SVGID_1_"  style="overflow:visible;"/>
	</clipPath>
	<g style="clip-path:url(#SVGID_00000137089839121775958010000000668453046792866491_);">
		<path class="st2" d="M45.2,21.2c-0.1-0.2-0.2-0.3-0.4-0.4s-0.4-0.1-0.6,0c-0.2,0.1-0.3,0.2-0.4,0.4c-0.1,0.2-0.1,0.4-0.1,0.6
			c1.2,3.5-1.2,6.1-3,7.5L40,28.1c-0.2-0.4-0.8-0.7-1.2-0.7l-4.1,0c-0.5,0-1,0.2-1.4,0.4l-12.2,8.6c-0.3,0.2-0.5,0.5-0.5,0.8
			c-0.1,0.3,0,0.7,0.2,1l5.5,7.9c0.4,0.6,1.1,0.5,1.7,0.1l12.2-8.6c0.4-0.2,0.8-0.8,0.9-1.2l1.3-4.1c0.1-0.4,0.1-1-0.2-1.4l-0.4-0.6
			C44.1,28.6,46.6,25.3,45.2,21.2z M39.5,33.4c-0.2,0.2-0.5,0.3-0.7,0.3c-0.3,0.1-0.5,0.1-0.8,0c-0.3,0-0.5-0.1-0.8-0.3
			c-0.2-0.1-0.4-0.3-0.6-0.6c-0.3-0.5-0.4-1-0.3-1.6c0.1-0.5,0.4-1,0.9-1.4c0.4-0.2,0.8-0.4,1.2-0.4c0.4,0,0.9,0.1,1.2,0.4
			c-0.4,0.2-0.6,0.3-0.6,0.4c-0.2,0.1-0.3,0.2-0.4,0.4c-0.1,0.2-0.1,0.3-0.1,0.5c0,0.2,0.1,0.3,0.3,0.4c0.1,0.1,0.3,0.2,0.5,0.2
			c0.1,0,0.2,0,0.3-0.1c0.3-0.1,0.5-0.3,0.8-0.4c0.1,0.4,0,0.8-0.1,1.2C40.1,32.9,39.8,33.2,39.5,33.4z"/>
	</g>
</g>
</svg>
