<?xml version="1.0" encoding="utf-8"?>
<!-- Generator: Adobe Illustrator 28.2.0, SVG Export Plug-In . SVG Version: 6.00 Build 0)  -->
<svg version="1.1" id="Layer_1" xmlns="http://www.w3.org/2000/svg" xmlns:xlink="http://www.w3.org/1999/xlink" x="0px" y="0px"
	 viewBox="0 0 65 66" style="enable-background:new 0 0 65 66;" xml:space="preserve">
<style type="text/css">
	.st0{fill:#DCB349;}
	.st1{fill:#FFFFFF;}
</style>
<circle class="st0" cx="32.5" cy="32.7" r="32.5"/>
<path class="st1" d="M32.9,20.6c-6.8,0-12.3,5.5-12.3,12.3v5.1c0,1.3,1.1,2.3,2.5,2.3h1.2c0.3,0,0.6-0.1,0.9-0.4
	c0.2-0.2,0.4-0.5,0.4-0.9v-6.3c0-0.3-0.1-0.6-0.4-0.9c-0.2-0.2-0.5-0.4-0.9-0.4h-1.1c0.7-4.8,4.8-8.5,9.8-8.5c5,0,9.1,3.7,9.8,8.5
	h-1.1c-0.3,0-0.6,0.1-0.9,0.4c-0.2,0.2-0.4,0.5-0.4,0.9v7.6c0,1.4-1.1,2.5-2.5,2.5h-2.5v-1.2h-4.9v3.7h7.4c2.7,0,4.9-2.2,4.9-4.9
	c1.4,0,2.5-1,2.5-2.3V33C45.3,26.2,39.7,20.6,32.9,20.6z"/>
</svg>
